<svg version="1.1" id="Layer_1" xmlns="http://www.w3.org/2000/svg" xmlns:xlink="http://www.w3.org/1999/xlink" x="0px" y="0px"
	 width="100%" viewBox="0 0 512 512" enable-background="new 0 0 512 512" xml:space="preserve">
<path fill="#FFFFFF" opacity="1.000000" stroke="none" 
	d="
M287.000000,513.000000 
	C191.356552,513.000000 96.213104,513.000000 1.034826,513.000000 
	C1.034826,342.398193 1.034826,171.796371 1.034826,1.097280 
	C171.560135,1.097280 342.120331,1.097280 512.840271,1.097280 
	C512.840271,171.666550 512.840271,342.333252 512.840271,513.000000 
	C437.796356,513.000000 362.648163,513.000000 287.000000,513.000000 
M346.000000,303.500000 
	C346.000000,292.833649 346.244598,282.160645 345.953156,271.502258 
	C345.146149,241.989456 348.299713,212.364243 343.914612,182.967743 
	C341.921326,169.605087 337.387390,156.853897 327.540466,147.247787 
	C310.183624,130.315384 288.741791,129.544449 266.573853,133.946289 
	C257.473938,135.753250 250.258713,141.448380 242.886780,148.277985 
	C242.886780,125.693092 242.886780,103.987839 242.886780,82.329086 
	C218.678650,82.329086 194.949432,82.329086 171.361481,82.329086 
	C171.361481,198.053085 171.361481,313.447662 171.361481,428.781555 
	C195.334686,428.781555 218.945786,428.781555 243.023743,428.781555 
	C243.023743,419.569092 243.023743,410.560608 243.023743,401.552094 
	C244.253098,402.154541 244.661316,402.921509 245.009842,403.714722 
	C250.627319,416.498779 259.078979,426.708435 273.017548,430.234589 
	C279.300293,431.824036 286.268982,431.319550 292.872070,430.902802 
	C309.037994,429.882538 322.003693,422.929779 331.333771,409.323395 
	C341.458313,394.558380 345.388885,377.938721 345.881287,360.495850 
	C346.407837,341.844299 346.000000,323.166412 346.000000,303.500000 
M464.000122,442.266022 
	C465.000092,430.498108 466.653107,418.741913 466.864594,406.959839 
	C467.310028,382.140686 466.828186,357.306122 467.091949,332.481781 
	C467.185974,323.631439 467.773956,314.704010 469.146057,305.970398 
	C470.863007,295.042084 476.258087,286.508911 487.905914,283.548096 
	C491.921173,282.527435 495.925446,281.463654 499.792969,280.456451 
	C499.792969,264.220245 499.792969,248.260254 499.792969,232.271942 
	C497.373688,231.822739 495.108887,231.553070 492.927551,230.970703 
	C484.137085,228.623871 475.146454,225.880142 472.149384,216.120285 
	C469.646545,207.969971 467.392670,199.379089 467.228180,190.940414 
	C466.643646,160.959274 466.877350,130.958984 467.072510,100.967712 
	C467.133362,91.613327 470.582672,87.394127 478.690247,85.073334 
	C485.629303,83.087021 492.772766,81.814651 499.799683,80.232407 
	C499.799683,58.957821 499.799683,37.671791 499.799683,15.959875 
	C497.192505,16.330086 494.844330,16.806959 492.474274,16.975195 
	C482.294403,17.697784 472.003296,17.640091 461.950439,19.167740 
	C449.164490,21.110718 436.251373,23.313179 423.974792,27.227982 
	C409.388550,31.879297 397.498199,40.586258 390.786407,55.416367 
	C384.729187,68.800140 382.436890,82.903412 382.170837,97.192856 
	C381.609467,127.341568 381.868561,157.508987 382.091095,187.666504 
	C382.147797,195.349335 383.054016,203.059464 384.047455,210.694931 
	C386.238068,227.532043 395.364288,239.796173 410.010620,247.930496 
	C415.960571,251.234985 422.332550,253.779648 428.635315,256.727478 
	C427.549988,257.161804 426.507355,257.598633 425.450806,257.998779 
	C416.287018,261.469147 407.605133,265.719238 400.153107,272.293304 
	C386.703033,284.158783 382.494690,300.014526 382.175262,316.799438 
	C381.569763,348.613342 382.037628,380.447021 381.974548,412.272308 
	C381.957947,420.636444 378.625427,426.359680 370.138214,428.320496 
	C364.770508,429.560608 359.271790,430.531921 353.786224,430.859100 
	C350.113037,431.078186 348.875885,432.072327 348.928680,435.794037 
	C349.112946,448.788208 349.000000,461.786591 349.000000,474.783356 
	C349.000000,482.063232 349.000000,489.343109 349.000000,497.796051 
	C361.690186,496.837433 373.809998,495.953766 385.924194,494.998474 
	C400.239563,493.869598 414.288422,491.332245 427.653320,485.950012 
	C447.225677,478.067963 458.955536,463.377045 464.000122,442.266022 
M49.920750,74.362045 
	C48.947166,81.962860 47.254284,89.551270 47.122902,97.166618 
	C46.511963,132.578445 46.501404,168.000610 45.896229,203.412598 
	C45.717548,213.868332 41.643326,223.160767 31.975222,228.224930 
	C26.552626,231.065277 20.145920,232.026855 14.193953,233.831467 
	C14.193953,249.394547 14.193953,265.020538 14.193953,280.699799 
	C16.586397,281.156738 18.798553,281.616699 21.024160,281.998169 
	C35.371243,284.457123 41.972511,291.723175 44.774273,303.340973 
	C46.523010,310.592316 46.700039,318.301453 46.936275,325.825439 
	C48.076977,362.155853 44.736057,398.578186 49.044071,434.841095 
	C50.217323,444.717010 53.029446,454.164398 58.254852,462.759644 
	C66.114830,475.688507 77.702568,484.036743 92.012741,487.850800 
	C104.201653,491.099487 116.752060,493.244965 129.270111,494.931915 
	C140.944000,496.505096 152.785950,496.831146 164.721741,497.718628 
	C164.721741,475.086578 164.721741,453.688721 164.721741,432.647888 
	C158.765030,431.726654 153.080750,431.122192 147.522232,429.930878 
	C135.834137,427.425903 132.083679,422.445190 131.984238,410.487793 
	C131.695251,375.738556 131.577118,340.984680 130.835129,306.244537 
	C130.639893,297.103516 126.929153,288.523651 121.483322,281.024139 
	C113.302544,269.758331 101.648285,263.505249 88.843887,259.024689 
	C87.173302,258.440125 85.508629,257.838593 82.472977,256.757751 
	C96.063126,253.347641 106.909172,247.849609 115.933617,239.435608 
	C127.805824,228.366501 131.566528,213.529953 131.831192,198.146072 
	C132.387146,165.830734 131.920410,133.498856 132.049103,101.174477 
	C132.087082,91.635521 135.933624,87.102676 143.974243,85.020203 
	C150.826965,83.245377 157.806000,81.958237 164.730820,80.454994 
	C164.730820,59.006863 164.730820,37.588161 164.730820,16.353796 
	C155.622513,16.912811 146.732422,17.113003 137.927048,18.082645 
	C125.779976,19.420267 113.511230,20.510492 101.623825,23.175308 
	C74.337685,29.292070 55.069363,44.286728 49.920750,74.362045 
z"/>
<path fill="#2B3A87" opacity="1.000000" stroke="none" 
	d="
M346.000000,304.000000 
	C346.000000,323.166412 346.407837,341.844299 345.881287,360.495850 
	C345.388885,377.938721 341.458313,394.558380 331.333771,409.323395 
	C322.003693,422.929779 309.037994,429.882538 292.872070,430.902802 
	C286.268982,431.319550 279.300293,431.824036 273.017548,430.234589 
	C259.078979,426.708435 250.627319,416.498779 245.009842,403.714722 
	C244.661316,402.921509 244.253098,402.154541 243.023743,401.552094 
	C243.023743,410.560608 243.023743,419.569092 243.023743,428.781555 
	C218.945786,428.781555 195.334686,428.781555 171.361481,428.781555 
	C171.361481,313.447662 171.361481,198.053085 171.361481,82.329086 
	C194.949432,82.329086 218.678650,82.329086 242.886780,82.329086 
	C242.886780,103.987839 242.886780,125.693092 242.886780,148.277985 
	C250.258713,141.448380 257.473938,135.753250 266.573853,133.946289 
	C288.741791,129.544449 310.183624,130.315384 327.540466,147.247787 
	C337.387390,156.853897 341.921326,169.605087 343.914612,182.967743 
	C348.299713,212.364243 345.146149,241.989456 345.953156,271.502258 
	C346.244598,282.160645 346.000000,292.833649 346.000000,304.000000 
M269.471313,373.000214 
	C272.882141,367.981262 274.039093,362.403870 274.032227,356.388367 
	C273.975250,306.588959 274.068970,256.789185 273.881195,206.990448 
	C273.864502,202.565323 272.463287,198.057968 271.135712,193.764877 
	C270.538757,191.834457 268.886017,189.561386 267.118713,188.770889 
	C255.872864,183.740677 247.156357,188.229111 245.161530,200.382248 
	C243.677979,209.420578 243.289062,218.692276 243.086441,227.874893 
	C242.763168,242.524445 242.889420,257.187378 243.023911,271.842865 
	C243.273911,299.086273 243.628418,326.328979 244.053528,353.570190 
	C244.101517,356.644867 244.462494,359.848206 245.425644,362.743286 
	C246.820343,366.935516 247.430511,371.639038 252.159607,374.102936 
	C257.961212,377.125641 263.429413,376.719269 269.471313,373.000214 
z"/>
<path fill="#2B3A87" opacity="1.000000" stroke="none" 
	d="
M464.000031,442.680054 
	C458.955536,463.377045 447.225677,478.067963 427.653320,485.950012 
	C414.288422,491.332245 400.239563,493.869598 385.924194,494.998474 
	C373.809998,495.953766 361.690186,496.837433 349.000000,497.796051 
	C349.000000,489.343109 349.000000,482.063232 349.000000,474.783356 
	C349.000000,461.786591 349.112946,448.788208 348.928680,435.794037 
	C348.875885,432.072327 350.113037,431.078186 353.786224,430.859100 
	C359.271790,430.531921 364.770508,429.560608 370.138214,428.320496 
	C378.625427,426.359680 381.957947,420.636444 381.974548,412.272308 
	C382.037628,380.447021 381.569763,348.613342 382.175262,316.799438 
	C382.494690,300.014526 386.703033,284.158783 400.153107,272.293304 
	C407.605133,265.719238 416.287018,261.469147 425.450806,257.998779 
	C426.507355,257.598633 427.549988,257.161804 428.635315,256.727478 
	C422.332550,253.779648 415.960571,251.234985 410.010620,247.930496 
	C395.364288,239.796173 386.238068,227.532043 384.047455,210.694931 
	C383.054016,203.059464 382.147797,195.349335 382.091095,187.666504 
	C381.868561,157.508987 381.609467,127.341568 382.170837,97.192856 
	C382.436890,82.903412 384.729187,68.800140 390.786407,55.416367 
	C397.498199,40.586258 409.388550,31.879297 423.974792,27.227982 
	C436.251373,23.313179 449.164490,21.110718 461.950439,19.167740 
	C472.003296,17.640091 482.294403,17.697784 492.474274,16.975195 
	C494.844330,16.806959 497.192505,16.330086 499.799683,15.959875 
	C499.799683,37.671791 499.799683,58.957821 499.799683,80.232407 
	C492.772766,81.814651 485.629303,83.087021 478.690247,85.073334 
	C470.582672,87.394127 467.133362,91.613327 467.072510,100.967712 
	C466.877350,130.958984 466.643646,160.959274 467.228180,190.940414 
	C467.392670,199.379089 469.646545,207.969971 472.149384,216.120285 
	C475.146454,225.880142 484.137085,228.623871 492.927551,230.970703 
	C495.108887,231.553070 497.373688,231.822739 499.792969,232.271942 
	C499.792969,248.260254 499.792969,264.220245 499.792969,280.456451 
	C495.925446,281.463654 491.921173,282.527435 487.905914,283.548096 
	C476.258087,286.508911 470.863007,295.042084 469.146057,305.970398 
	C467.773956,314.704010 467.185974,323.631439 467.091949,332.481781 
	C466.828186,357.306122 467.310028,382.140686 466.864594,406.959839 
	C466.653107,418.741913 465.000092,430.498108 464.000031,442.680054 
z"/>
<path fill="#2B3A87" opacity="1.000000" stroke="none" 
	d="
M49.955559,73.932144 
	C55.069363,44.286728 74.337685,29.292070 101.623825,23.175308 
	C113.511230,20.510492 125.779976,19.420267 137.927048,18.082645 
	C146.732422,17.113003 155.622513,16.912811 164.730820,16.353796 
	C164.730820,37.588161 164.730820,59.006863 164.730820,80.454994 
	C157.806000,81.958237 150.826965,83.245377 143.974243,85.020203 
	C135.933624,87.102676 132.087082,91.635521 132.049103,101.174477 
	C131.920410,133.498856 132.387146,165.830734 131.831192,198.146072 
	C131.566528,213.529953 127.805824,228.366501 115.933617,239.435608 
	C106.909172,247.849609 96.063126,253.347641 82.472977,256.757751 
	C85.508629,257.838593 87.173302,258.440125 88.843887,259.024689 
	C101.648285,263.505249 113.302544,269.758331 121.483322,281.024139 
	C126.929153,288.523651 130.639893,297.103516 130.835129,306.244537 
	C131.577118,340.984680 131.695251,375.738556 131.984238,410.487793 
	C132.083679,422.445190 135.834137,427.425903 147.522232,429.930878 
	C153.080750,431.122192 158.765030,431.726654 164.721741,432.647888 
	C164.721741,453.688721 164.721741,475.086578 164.721741,497.718628 
	C152.785950,496.831146 140.944000,496.505096 129.270111,494.931915 
	C116.752060,493.244965 104.201653,491.099487 92.012741,487.850800 
	C77.702568,484.036743 66.114830,475.688507 58.254852,462.759644 
	C53.029446,454.164398 50.217323,444.717010 49.044071,434.841095 
	C44.736057,398.578186 48.076977,362.155853 46.936275,325.825439 
	C46.700039,318.301453 46.523010,310.592316 44.774273,303.340973 
	C41.972511,291.723175 35.371243,284.457123 21.024160,281.998169 
	C18.798553,281.616699 16.586397,281.156738 14.193953,280.699799 
	C14.193953,265.020538 14.193953,249.394547 14.193953,233.831467 
	C20.145920,232.026855 26.552626,231.065277 31.975222,228.224930 
	C41.643326,223.160767 45.717548,213.868332 45.896229,203.412598 
	C46.501404,168.000610 46.511963,132.578445 47.122902,97.166618 
	C47.254284,89.551270 48.947166,81.962860 49.955559,73.932144 
z"/>
<path fill="#FFFFFF" opacity="1.000000" stroke="none" 
	d="
M269.196228,373.283813 
	C263.429413,376.719269 257.961212,377.125641 252.159607,374.102936 
	C247.430511,371.639038 246.820343,366.935516 245.425644,362.743286 
	C244.462494,359.848206 244.101517,356.644867 244.053528,353.570190 
	C243.628418,326.328979 243.273911,299.086273 243.023911,271.842865 
	C242.889420,257.187378 242.763168,242.524445 243.086441,227.874893 
	C243.289062,218.692276 243.677979,209.420578 245.161530,200.382248 
	C247.156357,188.229111 255.872864,183.740677 267.118713,188.770889 
	C268.886017,189.561386 270.538757,191.834457 271.135712,193.764877 
	C272.463287,198.057968 273.864502,202.565323 273.881195,206.990448 
	C274.068970,256.789185 273.975250,306.588959 274.032227,356.388367 
	C274.039093,362.403870 272.882141,367.981262 269.196228,373.283813 
z"/>
</svg>