<?xml version="1.0" standalone="no"?>
<!DOCTYPE svg PUBLIC "-//W3C//DTD SVG 20010904//EN"
 "http://www.w3.org/TR/2001/REC-SVG-20010904/DTD/svg10.dtd">
<svg version="1.0" xmlns="http://www.w3.org/2000/svg"
 width="300.000000pt" height="354.000000pt" viewBox="0 0 300.000000 354.000000"
 preserveAspectRatio="xMidYMid meet">
<metadata>
Created by potrace 1.10, written by Peter Selinger 2001-2011
</metadata>
<g transform="translate(0.000000,354.000000) scale(0.100000,-0.100000)"
fill="#000000" stroke="none">
<path d="M1410 3450 c-315 -295 -713 -449 -1212 -467 l-166 -6 -6 -31 c-2 -17
-10 -104 -17 -194 -19 -246 5 -564 66 -857 144 -696 536 -1296 1110 -1698 107
-74 296 -187 314 -187 23 0 258 145 366 225 367 276 625 582 818 970 255 512
361 1139 291 1723 l-6 52 -97 0 c-517 1 -966 167 -1292 477 -42 40 -78 73 -80
73 -2 -1 -42 -37 -89 -80z m159 -190 c132 -114 383 -252 578 -319 183 -62 451
-111 614 -111 l66 0 7 -46 c19 -143 0 -516 -39 -739 -137 -788 -558 -1414
-1227 -1823 l-68 -42 -62 37 c-174 101 -363 249 -524 410 -414 414 -671 978
-739 1621 -15 136 -20 492 -9 549 l6 30 116 6 c193 10 398 51 590 117 184 64
440 210 567 323 28 25 55 42 61 38 6 -3 35 -26 63 -51z"/>
<path d="M1440 3084 c-136 -111 -356 -227 -545 -287 -166 -53 -252 -72 -395
-87 -58 -6 -123 -15 -145 -18 l-40 -7 2 -220 c1 -242 19 -387 72 -608 86 -355
261 -710 476 -967 154 -184 402 -397 588 -504 l47 -28 77 48 c682 425 1078
1151 1110 2034 3 97 3 192 -1 212 -7 36 -7 37 -64 43 -324 34 -517 84 -747
194 -129 62 -234 127 -321 197 -29 24 -55 44 -56 43 -2 0 -28 -21 -58 -45z
m598 -692 c20 -10 37 -23 39 -28 2 -5 -9 -25 -25 -43 l-27 -33 -43 22 c-50 26
-79 19 -109 -27 -28 -42 -26 -181 3 -220 26 -35 75 -42 123 -17 l33 18 24 -29
c32 -40 27 -56 -26 -82 -90 -46 -217 -20 -267 56 -43 64 -56 179 -31 265 16
53 83 120 134 134 51 14 128 7 172 -16z m-523 -114 l50 -133 3 133 3 132 54 0
55 0 0 -235 0 -236 -77 3 -77 3 -46 122 -45 122 -3 -125 -3 -125 -57 3 -57 3
-3 220 c-1 121 0 225 2 232 4 9 29 13 79 13 l73 0 49 -132z m871 104 c48 -24
64 -56 64 -123 0 -45 -4 -55 -35 -86 -19 -19 -35 -38 -35 -41 0 -4 23 -44 50
-90 28 -46 50 -85 50 -88 0 -3 -32 -4 -71 -2 l-72 3 -43 80 c-24 44 -48 81
-54 83 -6 2 -10 -27 -10 -82 l0 -86 -65 0 -65 0 0 231 0 232 123 -5 c97 -5
132 -10 163 -26z m-1201 -12 c69 -35 95 -87 95 -191 0 -120 -25 -170 -105
-212 -34 -18 -58 -21 -155 -21 l-115 -1 -3 229 -2 228 118 -3 c102 -4 124 -7
167 -29z m-418 -71 c65 -24 112 -112 102 -189 -4 -25 -6 -25 -106 -28 -108 -3
-123 -11 -87 -46 20 -20 61 -20 99 0 29 15 30 14 52 -13 33 -40 29 -52 -23
-75 -60 -26 -160 -22 -201 8 -50 38 -67 70 -71 138 -9 135 53 215 165 216 23
0 54 -5 70 -11z"/>
<path d="M2230 2266 l0 -56 33 0 c40 0 57 15 57 50 0 37 -12 50 -53 57 l-37 6
0 -57z"/>
<path d="M1030 2170 c0 -132 1 -140 19 -140 73 0 105 50 99 158 -3 66 -6 77
-31 98 -16 14 -41 24 -58 24 l-29 0 0 -140z"/>
<path d="M683 2222 c-6 -4 -16 -20 -22 -35 l-11 -27 51 0 c48 0 50 1 44 23 -7
20 -32 47 -44 47 -3 0 -11 -4 -18 -8z"/>
</g>
</svg>
