<?xml version="1.0"?>
<svg width="512" height="512" xmlns="http://www.w3.org/2000/svg" xmlns:svg="http://www.w3.org/2000/svg" enable-background="new 0 0 512 512" version="1.1" xml:space="preserve">
 <g class="layer">
  <title>Layer 1</title>
  <path d="m156.02,487.33c-21,0.44 -41.48,0.22 -61.61,-4.4c-5.17,-1.18 -10.3,-2.77 -15.21,-4.75c-24.94,-10.02 -38.25,-28.82 -37.96,-55.47c0.18,-17.55 3.16,-35.09 5.29,-52.58c2.33,-19.17 5.14,-38.28 7.72,-57.41c0.17,-1.32 0.23,-2.66 0.24,-3.99c0.11,-11.27 -3.36,-14.99 -14.61,-15.71c-8.09,-0.52 -11.79,-5.03 -10.67,-12.92c2.6,-18.29 5.25,-36.58 7.69,-54.9c0.39,-2.89 1.22,-4.22 4.27,-3.95c1.98,0.17 3.99,-0.06 5.99,-0.16c10.38,-0.52 18.09,-5.22 20.93,-15.43c2.57,-9.24 4.37,-18.75 5.82,-28.25c4.14,-27.15 7.05,-54.52 12.08,-81.49c7.43,-39.88 28.15,-58.92 68.54,-65.99c20.16,-3.52 40.46,-3.37 60.78,-3.4c4.33,-0.01 8.66,0.11 12.98,0.06c8.91,-0.13 12.66,3.92 11.56,12.74c-1.96,15.7 -3.98,31.39 -6,47.08c-0.1,0.79 -0.39,1.56 -0.7,2.72c-11.9,0 -23.7,-0.06 -35.5,0.04c-4.66,0.04 -9.33,0.24 -13.96,0.73c-13.82,1.48 -19.65,6.81 -21.68,20.44c-3.17,21.24 -6,42.53 -9.02,63.8c-1.52,10.71 -2.99,21.43 -4.75,32.1c-3.95,23.87 -15.96,41.71 -39.15,51c0.36,0.62 0.48,1.21 0.82,1.38c21.43,10.52 26.62,29.32 24.39,50.74c-2.48,23.83 -6.51,47.49 -9.83,71.23c-1.31,9.4 -2.88,18.77 -3.69,28.22c-0.96,11.04 2.19,14.64 13.38,15.09c16.3,0.66 32.62,0.8 48.93,1.08c3.17,0.06 5.9,0.04 8.34,2.97c2.31,2.77 2.73,5.38 2.35,8.65c-1.89,16.71 -3.67,33.42 -5.56,50.73c-10.19,0 -20.94,0 -32.2,0z" fill="#000000" id="svg_1" opacity="1" transform="matrix(1 0 0 1 0 0)"/>
  <path d="m255.15,487.12c-5.63,1.17 -9.07,-1.34 -11.65,-5.39c-0.64,-1.01 -1.13,-2.44 -0.99,-3.6c2.17,-17.67 4.46,-35.32 6.76,-53.34c4.88,-0.25 9.66,-0.41 14.43,-0.75c14.37,-1.06 20.92,-6.75 23.12,-20.79c2.29,-14.63 4.09,-29.34 6.19,-44c2.62,-18.29 4.88,-36.64 8.12,-54.81c3.83,-21.51 15.37,-37.63 35.69,-46.82c0.88,-0.39 1.69,-0.94 2.49,-1.39c-0.11,-0.46 -0.09,-0.89 -0.24,-0.97c-19.71,-9.83 -25.85,-26.94 -24.35,-47.37c0.97,-13.06 3.53,-26 5.38,-39c3.27,-22.9 6.29,-45.85 9.96,-68.68c1.31,-8.15 3.66,-16.24 6.46,-24.02c9.03,-25.12 28.56,-37.95 53.34,-44.14c20.18,-5.04 40.79,-5.72 61.47,-5.54c8.32,0.07 16.65,-0.01 24.97,-0.02c3.63,0 9.29,4.91 8.89,8.36c-2.08,17.99 -4.41,35.94 -6.71,54.32c-12.22,0 -24.01,-0.07 -35.81,0.03c-4.65,0.04 -9.32,0.21 -13.95,0.7c-13.83,1.47 -19.68,6.82 -21.71,20.41c-3.17,21.23 -6.03,42.51 -9.01,63.78c-1.15,8.24 -2.29,16.48 -3.4,24.73c-0.22,1.64 -0.4,3.3 -0.43,4.96c-0.18,12.59 2.88,15.95 15.44,17.04c7.35,0.63 10.91,5.32 9.87,12.55c-2.56,17.79 -5.1,35.59 -7.38,53.42c-0.5,3.9 -1.32,5.65 -5.88,5.66c-18.38,0.02 -25.99,7.2 -29.1,27.87c-4.28,28.47 -7.96,57.03 -12.18,85.52c-1.24,8.36 -2.98,16.71 -5.28,24.85c-8.19,28.96 -28.48,45.22 -57.01,51.04c-15.4,3.14 -31.33,3.67 -47.5,5.39z" fill="#000000" id="svg_2" opacity="1"/>
 </g>
</svg>