<svg version="1.1" id="Layer_1" xmlns="http://www.w3.org/2000/svg" xmlns:xlink="http://www.w3.org/1999/xlink" x="0px" y="0px" width="100%" viewBox="0 0 225 225" enable-background="new 0 0 225 225" xml:space="preserve">
<path fill="none" opacity="1.000000" stroke="none" d="&#10;M148.000000,226.000000 &#10;&#9;C98.666672,226.000000 49.833340,226.000000 1.000006,226.000000 &#10;&#9;C1.000004,151.000000 1.000004,76.000015 1.000002,1.000017 &#10;&#9;C75.999992,1.000011 150.999985,1.000011 225.999969,1.000005 &#10;&#9;C225.999985,75.999985 225.999985,150.999969 226.000000,225.999969 &#10;&#9;C200.166672,226.000000 174.333328,226.000000 148.000000,226.000000 &#10;M131.500061,207.084320 &#10;&#9;C150.327988,207.084000 169.156052,207.127899 187.983780,207.066528 &#10;&#9;C199.049881,207.030457 207.017990,199.337708 207.060959,188.448990 &#10;&#9;C207.159607,163.456467 207.166641,138.462936 207.053787,113.470528 &#10;&#9;C207.005600,102.797333 199.055634,94.968727 188.405304,94.910759 &#10;&#9;C172.077026,94.821884 155.747940,94.885620 139.419189,94.884636 &#10;&#9;C137.133240,94.884499 134.847275,94.884621 132.103622,94.884621 &#10;&#9;C132.103622,92.796799 132.103821,91.175636 132.103577,89.554482 &#10;&#9;C132.101089,72.559265 132.184967,55.563438 132.064484,38.569065 &#10;&#9;C131.988739,27.887756 124.073814,19.979881 113.457947,19.946348 &#10;&#9;C88.465240,19.867399 63.471920,19.865227 38.479233,19.948605 &#10;&#9;C27.837248,19.984104 19.964382,27.895344 19.928099,38.590591 &#10;&#9;C19.843882,63.416672 19.847519,88.243393 19.922855,113.069527 &#10;&#9;C19.957008,124.324631 27.777258,132.038788 39.141163,132.093445 &#10;&#9;C55.969391,132.174377 72.798286,132.114914 89.626900,132.115234 &#10;&#9;C91.241661,132.115265 92.856430,132.115250 94.896362,132.115250 &#10;&#9;C94.896362,134.241501 94.896240,135.866837 94.896385,137.492157 &#10;&#9;C94.897865,154.487381 94.822876,171.483078 94.928734,188.477661 &#10;&#9;C94.995430,199.183990 102.827782,206.924896 113.505127,207.065582 &#10;&#9;C119.169235,207.140228 124.835091,207.082352 131.500061,207.084320 &#10;z"/>
<path fill="#010101" opacity="1.000000" stroke="none" d="&#10;M131.000107,207.084320 &#10;&#9;C124.835091,207.082352 119.169235,207.140228 113.505127,207.065582 &#10;&#9;C102.827782,206.924896 94.995430,199.183990 94.928734,188.477661 &#10;&#9;C94.822876,171.483078 94.897865,154.487381 94.896385,137.492157 &#10;&#9;C94.896240,135.866837 94.896362,134.241501 94.896362,132.115250 &#10;&#9;C92.856430,132.115250 91.241661,132.115265 89.626900,132.115234 &#10;&#9;C72.798286,132.114914 55.969391,132.174377 39.141163,132.093445 &#10;&#9;C27.777258,132.038788 19.957008,124.324631 19.922855,113.069527 &#10;&#9;C19.847519,88.243393 19.843882,63.416672 19.928099,38.590591 &#10;&#9;C19.964382,27.895344 27.837248,19.984104 38.479233,19.948605 &#10;&#9;C63.471920,19.865227 88.465240,19.867399 113.457947,19.946348 &#10;&#9;C124.073814,19.979881 131.988739,27.887756 132.064484,38.569065 &#10;&#9;C132.184967,55.563438 132.101089,72.559265 132.103577,89.554482 &#10;&#9;C132.103821,91.175636 132.103622,92.796799 132.103622,94.884621 &#10;&#9;C134.847275,94.884621 137.133240,94.884499 139.419189,94.884636 &#10;&#9;C155.747940,94.885620 172.077026,94.821884 188.405304,94.910759 &#10;&#9;C199.055634,94.968727 207.005600,102.797333 207.053787,113.470528 &#10;&#9;C207.166641,138.462936 207.159607,163.456467 207.060959,188.448990 &#10;&#9;C207.017990,199.337708 199.049881,207.030457 187.983780,207.066528 &#10;&#9;C169.156052,207.127899 150.327988,207.084000 131.000107,207.084320 &#10;M105.624390,96.712128 &#10;&#9;C105.424377,95.196861 105.520126,93.565712 104.978851,92.184151 &#10;&#9;C99.249115,77.559547 93.422722,62.972782 87.613167,48.379494 &#10;&#9;C83.568604,38.219769 83.556519,38.429626 72.743118,38.154228 &#10;&#9;C69.011452,38.059185 67.616875,39.537636 66.402946,42.688137 &#10;&#9;C60.282078,58.573524 53.966572,74.383987 47.704723,90.214958 &#10;&#9;C44.683971,97.851891 41.630981,105.476082 38.410305,113.563797 &#10;&#9;C44.589153,113.563797 50.011982,113.563797 55.678829,113.563797 &#10;&#9;C57.696251,108.253990 59.623703,102.806694 61.892910,97.505692 &#10;&#9;C62.381313,96.364761 64.079964,95.050804 65.261208,95.011185 &#10;&#9;C72.240364,94.777069 79.239098,94.724243 86.211830,95.039688 &#10;&#9;C87.610161,95.102943 89.472870,96.744308 90.170364,98.135048 &#10;&#9;C91.940369,101.664230 93.170860,105.464005 94.211403,108.119431 &#10;&#9;C97.798012,104.397095 101.354500,100.706017 105.624390,96.712128 &#10;M134.398331,147.556824 &#10;&#9;C131.896423,149.969193 129.034637,152.108673 126.959885,154.844925 &#10;&#9;C120.655174,163.159729 121.558067,173.769745 128.801102,180.553223 &#10;&#9;C142.563828,193.442749 169.088120,189.111511 178.540161,178.988937 &#10;&#9;C176.041946,178.988937 173.930801,179.149353 171.851044,178.961746 &#10;&#9;C161.716751,178.047546 151.648911,176.843536 143.661270,169.522324 &#10;&#9;C139.655563,165.850830 138.967407,161.371231 140.597855,156.355698 &#10;&#9;C142.258347,151.247681 145.665756,147.968338 151.077682,147.971909 &#10;&#9;C155.565811,147.974884 160.053284,148.949478 164.956848,149.544037 &#10;&#9;C166.300201,144.706924 167.958908,138.734253 169.768860,132.216965 &#10;&#9;C167.830597,132.832031 166.491196,133.553909 165.111282,133.642136 &#10;&#9;C159.901382,133.975250 154.643417,134.550369 149.472595,134.147446 &#10;&#9;C146.091782,133.884003 142.952255,131.844223 143.917557,127.447075 &#10;&#9;C144.836975,123.258942 147.920944,121.249619 151.966965,121.586731 &#10;&#9;C155.254059,121.860603 158.463318,123.068787 161.689240,123.858253 &#10;&#9;C161.278534,117.794083 153.146652,112.324684 146.336227,113.602409 &#10;&#9;C134.267899,115.866600 127.756226,131.727585 134.368454,142.501984 &#10;&#9;C135.148941,143.773758 138.320114,145.120956 134.398331,147.556824 &#10;z"/>
<path fill="none" opacity="1.000000" stroke="none" d="&#10;M105.267693,96.863533 &#10;&#9;C101.354500,100.706017 97.798012,104.397095 94.211403,108.119431 &#10;&#9;C93.170860,105.464005 91.940369,101.664230 90.170364,98.135048 &#10;&#9;C89.472870,96.744308 87.610161,95.102943 86.211830,95.039688 &#10;&#9;C79.239098,94.724243 72.240364,94.777069 65.261208,95.011185 &#10;&#9;C64.079964,95.050804 62.381313,96.364761 61.892910,97.505692 &#10;&#9;C59.623703,102.806694 57.696251,108.253990 55.678829,113.563797 &#10;&#9;C50.011982,113.563797 44.589153,113.563797 38.410305,113.563797 &#10;&#9;C41.630981,105.476082 44.683971,97.851891 47.704723,90.214958 &#10;&#9;C53.966572,74.383987 60.282078,58.573524 66.402946,42.688137 &#10;&#9;C67.616875,39.537636 69.011452,38.059185 72.743118,38.154228 &#10;&#9;C83.556519,38.429626 83.568604,38.219769 87.613167,48.379494 &#10;&#9;C93.422722,62.972782 99.249115,77.559547 104.978851,92.184151 &#10;&#9;C105.520126,93.565712 105.424377,95.196861 105.267693,96.863533 &#10;M80.268639,85.158882 &#10;&#9;C81.752281,85.158882 83.235924,85.158882 85.219231,85.158882 &#10;&#9;C82.184837,76.122192 79.293152,67.510521 75.963791,57.595402 &#10;&#9;C72.633522,67.630318 69.792473,76.191093 66.816345,85.158882 &#10;&#9;C71.356796,85.158882 75.340134,85.158882 80.268639,85.158882 &#10;z"/>
<path fill="none" opacity="1.000000" stroke="none" d="&#10;M134.716339,147.343414 &#10;&#9;C138.320114,145.120956 135.148941,143.773758 134.368454,142.501984 &#10;&#9;C127.756226,131.727585 134.267899,115.866600 146.336227,113.602409 &#10;&#9;C153.146652,112.324684 161.278534,117.794083 161.689240,123.858253 &#10;&#9;C158.463318,123.068787 155.254059,121.860603 151.966965,121.586731 &#10;&#9;C147.920944,121.249619 144.836975,123.258942 143.917557,127.447075 &#10;&#9;C142.952255,131.844223 146.091782,133.884003 149.472595,134.147446 &#10;&#9;C154.643417,134.550369 159.901382,133.975250 165.111282,133.642136 &#10;&#9;C166.491196,133.553909 167.830597,132.832031 169.768860,132.216965 &#10;&#9;C167.958908,138.734253 166.300201,144.706924 164.956848,149.544037 &#10;&#9;C160.053284,148.949478 155.565811,147.974884 151.077682,147.971909 &#10;&#9;C145.665756,147.968338 142.258347,151.247681 140.597855,156.355698 &#10;&#9;C138.967407,161.371231 139.655563,165.850830 143.661270,169.522324 &#10;&#9;C151.648911,176.843536 161.716751,178.047546 171.851044,178.961746 &#10;&#9;C173.930801,179.149353 176.041946,178.988937 178.540161,178.988937 &#10;&#9;C169.088120,189.111511 142.563828,193.442749 128.801102,180.553223 &#10;&#9;C121.558067,173.769745 120.655174,163.159729 126.959885,154.844925 &#10;&#9;C129.034637,152.108673 131.896423,149.969193 134.716339,147.343414 &#10;z"/>
<path fill="#060606" opacity="1.000000" stroke="none" d="&#10;M79.796051,85.158882 &#10;&#9;C75.340134,85.158882 71.356796,85.158882 66.816345,85.158882 &#10;&#9;C69.792473,76.191093 72.633522,67.630318 75.963791,57.595402 &#10;&#9;C79.293152,67.510521 82.184837,76.122192 85.219231,85.158882 &#10;&#9;C83.235924,85.158882 81.752281,85.158882 79.796051,85.158882 &#10;z"/>
</svg>