<svg version="1.1" id="Layer_1" xmlns="http://www.w3.org/2000/svg" xmlns:xlink="http://www.w3.org/1999/xlink" x="0px" y="0px" width="100%" viewBox="0 0 431 509" enable-background="new 0 0 431 509" xml:space="preserve">
<path fill="#000000" opacity="1.000000" stroke="none" d="&#10;M432.000000,119.000000 &#10;&#9;C432.000000,133.354233 432.000000,147.708450 431.599121,162.687698 &#10;&#9;C431.465485,166.875137 431.732758,170.437576 432.000000,174.000000 &#10;&#9;C432.000000,174.444443 432.000000,174.888901 431.618164,175.797241 &#10;&#9;C430.491333,180.559128 429.611481,184.838837 429.026733,189.158508 &#10;&#9;C427.281769,202.049759 426.461823,215.128006 423.776581,227.814865 &#10;&#9;C420.289978,244.287827 415.323212,260.445923 411.052063,276.754852 &#10;&#9;C405.789215,296.850494 398.012177,316.078735 388.588348,334.433746 &#10;&#9;C379.426483,352.278564 369.023315,369.593811 357.866333,386.272675 &#10;&#9;C348.856598,399.741577 338.612000,412.557220 327.658203,424.510773 &#10;&#9;C312.733154,440.798096 297.055359,456.518341 278.968323,469.418915 &#10;&#9;C264.266876,479.904663 249.195343,489.875061 234.203537,499.948334 &#10;&#9;C228.931305,503.490814 223.408417,506.660217 218.000000,510.000000 &#10;&#9;C217.250000,510.000000 216.500000,510.000000 215.282166,509.652405 &#10;&#9;C213.582993,508.540344 212.386948,507.710754 211.115021,507.021149 &#10;&#9;C190.945709,496.086029 171.503922,484.030640 153.831863,469.321228 &#10;&#9;C142.647034,460.011444 131.068726,451.070801 120.693871,440.915466 &#10;&#9;C104.672096,425.232635 89.637497,408.551056 77.248161,389.723999 &#10;&#9;C69.103973,377.348022 60.250595,365.333130 53.253300,352.328735 &#10;&#9;C35.548599,319.424774 21.756697,284.944031 13.573758,248.296158 &#10;&#9;C8.725132,226.581253 4.374874,204.850830 2.925948,182.606812 &#10;&#9;C2.823632,181.036057 1.666598,179.533997 1.000001,178.000000 &#10;&#9;C1.000000,177.555557 1.000000,177.111099 1.377068,176.207245 &#10;&#9;C1.502757,173.831894 1.251379,171.915955 1.000000,170.000000 &#10;&#9;C1.000000,150.312439 1.000000,130.624878 1.339799,110.384666 &#10;&#9;C1.453065,108.888008 1.226533,107.944008 1.000000,107.000000 &#10;&#9;C1.000000,106.555557 1.000000,106.111107 1.392499,105.208344 &#10;&#9;C2.523335,98.485832 3.551575,92.237015 3.885179,85.951332 &#10;&#9;C4.068816,82.491302 4.634546,80.910858 8.591262,80.899773 &#10;&#9;C18.344118,80.872459 28.134947,80.770561 37.838142,79.895882 &#10;&#9;C51.781193,78.639015 65.722977,77.072578 79.551857,74.912155 &#10;&#9;C101.754478,71.443550 122.796600,64.095627 143.067032,54.461838 &#10;&#9;C167.174789,43.004303 189.076462,28.448402 207.566269,9.011024 &#10;&#9;C209.698471,6.769567 212.117691,4.718401 214.699570,3.031711 &#10;&#9;C215.621109,2.429698 217.864182,2.643182 218.742126,3.385521 &#10;&#9;C223.144440,7.107818 227.458511,10.966951 231.503525,15.073553 &#10;&#9;C246.833633,30.637007 265.030975,42.142200 284.307037,51.942616 &#10;&#9;C304.830627,62.377293 326.541046,69.411980 349.134491,74.206146 &#10;&#9;C369.721497,78.574570 390.443573,80.456886 411.375244,80.979439 &#10;&#9;C416.842926,81.115936 422.316925,81.000000 428.348572,81.000000 &#10;&#9;C429.250763,92.251434 430.100159,103.160843 431.026733,114.063683 &#10;&#9;C431.167908,115.724701 431.666656,117.355324 432.000000,119.000000 &#10;M395.997894,245.318100 &#10;&#9;C398.817078,229.904312 401.962402,214.540756 404.346710,199.059982 &#10;&#9;C406.084412,187.777267 407.308594,176.363983 407.866364,164.965073 &#10;&#9;C408.460266,152.827942 408.000000,140.639206 408.000000,128.473007 &#10;&#9;C408.000000,120.443222 408.000000,112.413437 408.000000,104.754921 &#10;&#9;C395.810852,103.760292 384.985046,103.215172 374.251923,101.908775 &#10;&#9;C362.843109,100.520142 351.401978,98.956627 340.189819,96.492043 &#10;&#9;C321.372833,92.355820 303.177338,86.288292 285.512115,78.351463 &#10;&#9;C264.810181,69.050255 245.407394,57.863731 227.926208,43.393639 &#10;&#9;C224.765732,40.777531 222.029297,37.585033 218.664307,35.294422 &#10;&#9;C212.992935,31.433807 212.613007,39.803654 208.570511,40.136402 &#10;&#9;C208.042633,40.179855 207.575912,40.966084 207.080856,41.408260 &#10;&#9;C193.752472,53.312958 178.699005,62.672752 162.972427,70.972588 &#10;&#9;C140.129852,83.027954 115.968575,91.711578 90.705803,96.806320 &#10;&#9;C75.927414,99.786674 60.805176,101.105103 45.810287,102.948891 &#10;&#9;C39.308781,103.748322 32.738400,103.987625 25.527594,104.532074 &#10;&#9;C19.801903,180.606689 31.546398,253.743225 64.537514,322.764771 &#10;&#9;C97.791267,392.335785 149.443924,445.054718 216.502838,483.206543 &#10;&#9;C225.275604,477.708313 234.171280,472.494598 242.691040,466.725677 &#10;&#9;C268.409424,449.311188 291.982056,429.424988 312.561615,406.028198 &#10;&#9;C325.028198,391.854980 336.320404,376.897888 346.573792,361.044464 &#10;&#9;C363.232605,335.287262 376.188263,307.814453 385.978516,278.821075 &#10;&#9;C389.617828,268.043335 392.656860,257.062866 395.997894,245.318100 &#10;z"/>
<path fill="none" opacity="1.000000" stroke="none" d="&#10;M432.000000,118.531342 &#10;&#9;C431.666656,117.355324 431.167908,115.724701 431.026733,114.063683 &#10;&#9;C430.100159,103.160843 429.250763,92.251434 428.348572,81.000000 &#10;&#9;C422.316925,81.000000 416.842926,81.115936 411.375244,80.979439 &#10;&#9;C390.443573,80.456886 369.721497,78.574570 349.134491,74.206146 &#10;&#9;C326.541046,69.411980 304.830627,62.377293 284.307037,51.942616 &#10;&#9;C265.030975,42.142200 246.833633,30.637007 231.503525,15.073553 &#10;&#9;C227.458511,10.966951 223.144440,7.107818 218.742126,3.385521 &#10;&#9;C217.864182,2.643182 215.621109,2.429698 214.699570,3.031711 &#10;&#9;C212.117691,4.718401 209.698471,6.769567 207.566269,9.011024 &#10;&#9;C189.076462,28.448402 167.174789,43.004303 143.067032,54.461838 &#10;&#9;C122.796600,64.095627 101.754478,71.443550 79.551857,74.912155 &#10;&#9;C65.722977,77.072578 51.781193,78.639015 37.838142,79.895882 &#10;&#9;C28.134947,80.770561 18.344118,80.872459 8.591262,80.899773 &#10;&#9;C4.634546,80.910858 4.068816,82.491302 3.885179,85.951332 &#10;&#9;C3.551575,92.237015 2.523335,98.485832 1.392499,104.875015 &#10;&#9;C1.000000,70.356567 1.000000,35.713142 1.000000,1.034856 &#10;&#9;C144.547119,1.034856 288.094269,1.034856 432.000000,1.034856 &#10;&#9;C432.000000,40.020161 432.000000,79.041420 432.000000,118.531342 &#10;z"/>
<path fill="none" opacity="1.000000" stroke="none" d="&#10;M218.468658,510.000000 &#10;&#9;C223.408417,506.660217 228.931305,503.490814 234.203537,499.948334 &#10;&#9;C249.195343,489.875061 264.266876,479.904663 278.968323,469.418915 &#10;&#9;C297.055359,456.518341 312.733154,440.798096 327.658203,424.510773 &#10;&#9;C338.612000,412.557220 348.856598,399.741577 357.866333,386.272675 &#10;&#9;C369.023315,369.593811 379.426483,352.278564 388.588348,334.433746 &#10;&#9;C398.012177,316.078735 405.789215,296.850494 411.052063,276.754852 &#10;&#9;C415.323212,260.445923 420.289978,244.287827 423.776581,227.814865 &#10;&#9;C426.461823,215.128006 427.281769,202.049759 429.026733,189.158508 &#10;&#9;C429.611481,184.838837 430.491333,180.559128 431.618164,176.130569 &#10;&#9;C432.000000,287.244385 432.000000,398.488800 432.000000,510.000000 &#10;&#9;C360.979340,510.000000 289.958313,510.000000 218.468658,510.000000 &#10;z"/>
<path fill="none" opacity="1.000000" stroke="none" d="&#10;M1.000001,178.468658 &#10;&#9;C1.666598,179.533997 2.823632,181.036057 2.925948,182.606812 &#10;&#9;C4.374874,204.850830 8.725132,226.581253 13.573758,248.296158 &#10;&#9;C21.756697,284.944031 35.548599,319.424774 53.253300,352.328735 &#10;&#9;C60.250595,365.333130 69.103973,377.348022 77.248161,389.723999 &#10;&#9;C89.637497,408.551056 104.672096,425.232635 120.693871,440.915466 &#10;&#9;C131.068726,451.070801 142.647034,460.011444 153.831863,469.321228 &#10;&#9;C171.503922,484.030640 190.945709,496.086029 211.115021,507.021149 &#10;&#9;C212.386948,507.710754 213.582993,508.540344 214.907166,509.652405 &#10;&#9;C143.723862,510.000000 72.447723,510.000000 1.000000,510.000000 &#10;&#9;C1.000000,399.645844 1.000000,289.291565 1.000001,178.468658 &#10;z"/>
<path fill="none" opacity="1.000000" stroke="none" d="&#10;M432.000000,173.542145 &#10;&#9;C431.732758,170.437576 431.465485,166.875137 431.599121,163.156357 &#10;&#9;C432.000000,166.361420 432.000000,169.722855 432.000000,173.542145 &#10;z"/>
<path fill="none" opacity="1.000000" stroke="none" d="&#10;M1.000000,170.428467 &#10;&#9;C1.251379,171.915955 1.502757,173.831894 1.377068,175.873932 &#10;&#9;C1.000000,174.285645 1.000000,172.571289 1.000000,170.428467 &#10;z"/>
<path fill="none" opacity="1.000000" stroke="none" d="&#10;M1.000000,107.375000 &#10;&#9;C1.226533,107.944008 1.453065,108.888008 1.339799,109.916008 &#10;&#9;C1.000000,109.250000 1.000000,108.500000 1.000000,107.375000 &#10;z"/>
<path fill="none" opacity="1.000000" stroke="none" d="&#10;M395.983765,245.746475 &#10;&#9;C392.656860,257.062866 389.617828,268.043335 385.978516,278.821075 &#10;&#9;C376.188263,307.814453 363.232605,335.287262 346.573792,361.044464 &#10;&#9;C336.320404,376.897888 325.028198,391.854980 312.561615,406.028198 &#10;&#9;C291.982056,429.424988 268.409424,449.311188 242.691040,466.725677 &#10;&#9;C234.171280,472.494598 225.275604,477.708313 216.502838,483.206543 &#10;&#9;C149.443924,445.054718 97.791267,392.335785 64.537514,322.764771 &#10;&#9;C31.546398,253.743225 19.801903,180.606689 25.527594,104.532074 &#10;&#9;C32.738400,103.987625 39.308781,103.748322 45.810287,102.948891 &#10;&#9;C60.805176,101.105103 75.927414,99.786674 90.705803,96.806320 &#10;&#9;C115.968575,91.711578 140.129852,83.027954 162.972427,70.972588 &#10;&#9;C178.699005,62.672752 193.752472,53.312958 207.080856,41.408260 &#10;&#9;C207.575912,40.966084 208.042633,40.179855 208.570511,40.136402 &#10;&#9;C212.613007,39.803654 212.992935,31.433807 218.664307,35.294422 &#10;&#9;C222.029297,37.585033 224.765732,40.777531 227.926208,43.393639 &#10;&#9;C245.407394,57.863731 264.810181,69.050255 285.512115,78.351463 &#10;&#9;C303.177338,86.288292 321.372833,92.355820 340.189819,96.492043 &#10;&#9;C351.401978,98.956627 362.843109,100.520142 374.251923,101.908775 &#10;&#9;C384.985046,103.215172 395.810852,103.760292 408.000000,104.754921 &#10;&#9;C408.000000,112.413437 408.000000,120.443222 408.000000,128.473007 &#10;&#9;C408.000000,140.639206 408.460266,152.827942 407.866364,164.965073 &#10;&#9;C407.308594,176.363983 406.084412,187.777267 404.346710,199.059982 &#10;&#9;C401.962402,214.540756 398.817078,229.904312 395.983765,245.746475 &#10;M382.965363,213.202805 &#10;&#9;C384.310211,201.543991 386.172882,189.916016 386.869110,178.218597 &#10;&#9;C387.744904,163.503906 387.763977,148.733566 387.935577,133.984711 &#10;&#9;C387.981903,130.001190 387.242676,126.008537 386.872955,122.114067 &#10;&#9;C355.091492,121.119675 324.795746,115.349495 295.524811,104.757393 &#10;&#9;C266.492889,94.251770 239.891312,79.267517 216.567108,59.162773 &#10;&#9;C213.554382,61.362675 210.814835,63.123482 208.345856,65.205200 &#10;&#9;C193.329178,77.866493 176.501282,87.733559 158.774475,95.845406 &#10;&#9;C138.315781,105.207382 117.163025,112.885399 94.694527,116.054741 &#10;&#9;C79.730278,118.165550 64.753677,120.240013 49.731171,121.851044 &#10;&#9;C45.950199,122.256531 44.935497,123.697411 45.002407,126.912895 &#10;&#9;C45.330074,142.659912 45.024509,158.453705 46.173183,174.140854 &#10;&#9;C47.396481,190.847046 49.002007,207.650436 52.262833,224.049057 &#10;&#9;C55.948540,242.584412 60.652458,261.059387 66.726372,278.944977 &#10;&#9;C76.189400,306.810303 88.940605,333.320679 106.152763,357.347931 &#10;&#9;C115.418121,370.281891 125.114464,383.006561 135.664764,394.895233 &#10;&#9;C148.683609,409.565552 163.185776,422.876160 179.079407,434.457550 &#10;&#9;C189.884644,442.331116 201.109467,449.642059 212.340988,456.903992 &#10;&#9;C214.134491,458.063599 217.599274,458.733612 219.196304,457.785461 &#10;&#9;C240.734634,444.998199 260.714722,430.008057 279.221252,413.164490 &#10;&#9;C298.603638,395.523865 315.249817,375.326721 329.583069,353.515106 &#10;&#9;C345.929901,328.639374 358.596649,301.752808 367.993652,273.425812 &#10;&#9;C374.436279,254.004608 379.175232,234.160126 382.965363,213.202805 &#10;z"/>
<path fill="#000000" opacity="1.000000" stroke="none" d="&#10;M382.746521,213.591400 &#10;&#9;C379.175232,234.160126 374.436279,254.004608 367.993652,273.425812 &#10;&#9;C358.596649,301.752808 345.929901,328.639374 329.583069,353.515106 &#10;&#9;C315.249817,375.326721 298.603638,395.523865 279.221252,413.164490 &#10;&#9;C260.714722,430.008057 240.734634,444.998199 219.196304,457.785461 &#10;&#9;C217.599274,458.733612 214.134491,458.063599 212.340988,456.903992 &#10;&#9;C201.109467,449.642059 189.884644,442.331116 179.079407,434.457550 &#10;&#9;C163.185776,422.876160 148.683609,409.565552 135.664764,394.895233 &#10;&#9;C125.114464,383.006561 115.418121,370.281891 106.152763,357.347931 &#10;&#9;C88.940605,333.320679 76.189400,306.810303 66.726372,278.944977 &#10;&#9;C60.652458,261.059387 55.948540,242.584412 52.262833,224.049057 &#10;&#9;C49.002007,207.650436 47.396481,190.847046 46.173183,174.140854 &#10;&#9;C45.024509,158.453705 45.330074,142.659912 45.002407,126.912895 &#10;&#9;C44.935497,123.697411 45.950199,122.256531 49.731171,121.851044 &#10;&#9;C64.753677,120.240013 79.730278,118.165550 94.694527,116.054741 &#10;&#9;C117.163025,112.885399 138.315781,105.207382 158.774475,95.845406 &#10;&#9;C176.501282,87.733559 193.329178,77.866493 208.345856,65.205200 &#10;&#9;C210.814835,63.123482 213.554382,61.362675 216.567108,59.162773 &#10;&#9;C239.891312,79.267517 266.492889,94.251770 295.524811,104.757393 &#10;&#9;C324.795746,115.349495 355.091492,121.119675 386.872955,122.114067 &#10;&#9;C387.242676,126.008537 387.981903,130.001190 387.935577,133.984711 &#10;&#9;C387.763977,148.733566 387.744904,163.503906 386.869110,178.218597 &#10;&#9;C386.172882,189.916016 384.310211,201.543991 382.746521,213.591400 &#10;M217.038101,220.402359 &#10;&#9;C217.890305,222.648163 218.523178,225.015961 219.678513,227.093155 &#10;&#9;C220.351028,228.302277 221.827057,229.818176 222.999649,229.869553 &#10;&#9;C229.251724,230.143478 235.522156,229.998581 241.718903,229.998581 &#10;&#9;C241.718903,207.695007 241.718903,185.960495 241.718903,164.283890 &#10;&#9;C236.694275,164.283890 231.955826,164.283890 226.638412,164.283890 &#10;&#9;C226.638412,177.017654 226.638412,189.474548 226.638412,201.931427 &#10;&#9;C221.078857,190.382446 216.595261,178.668610 211.948273,167.019943 &#10;&#9;C211.467621,165.815048 210.049667,164.180527 209.006470,164.135391 &#10;&#9;C202.753647,163.864822 196.483215,164.001236 190.279022,164.001236 &#10;&#9;C190.279022,186.300400 190.279022,208.034744 190.279022,229.718246 &#10;&#9;C195.635605,229.718246 200.707825,229.718246 205.564865,229.718246 &#10;&#9;C205.564865,216.979858 205.564865,204.520477 205.564865,192.061111 &#10;&#9;C205.846176,192.026901 206.127472,191.992691 206.408783,191.958466 &#10;&#9;C209.926483,201.172256 213.444168,210.386032 217.038101,220.402359 &#10;M339.178406,229.989380 &#10;&#9;C345.067749,229.989380 350.957062,229.989380 357.650818,229.989380 &#10;&#9;C351.814484,220.215057 346.460938,211.249252 341.001587,202.106262 &#10;&#9;C346.904602,199.176865 351.220795,195.638489 352.671448,188.999496 &#10;&#9;C354.619751,180.083084 351.257263,171.131577 342.863556,167.560181 &#10;&#9;C338.822021,165.840561 334.120605,165.356705 329.662811,164.997101 &#10;&#9;C320.860535,164.287064 312.019867,164.053146 303.289032,163.626938 &#10;&#9;C303.289032,186.344940 303.289032,208.067047 303.289032,229.713074 &#10;&#9;C308.983734,229.713074 314.385468,229.713074 320.107910,229.713074 &#10;&#9;C320.107910,221.323608 320.107910,213.215485 320.107910,205.308136 &#10;&#9;C324.514221,203.826996 325.720093,206.777390 327.208893,209.554535 &#10;&#9;C330.851379,216.349045 334.614319,223.078949 339.178406,229.989380 &#10;M175.967957,222.549561 &#10;&#9;C177.978683,219.838959 180.595047,217.387543 181.886688,214.369217 &#10;&#9;C185.777344,205.277466 186.084106,195.600052 183.821182,186.164581 &#10;&#9;C182.163635,179.253311 178.825928,173.188522 171.510757,169.797028 &#10;&#9;C158.451813,163.742554 144.816467,165.351166 131.000000,165.000793 &#10;&#9;C131.000000,176.185532 131.000000,186.805420 131.000000,197.425308 &#10;&#9;C131.000000,208.179108 131.000000,218.932907 131.000000,229.999008 &#10;&#9;C140.581009,229.999008 149.796570,230.828888 158.765594,229.700043 &#10;&#9;C164.508392,228.977264 169.887283,225.363327 175.967957,222.549561 &#10;M81.950279,222.424576 &#10;&#9;C83.261765,224.078064 84.281647,226.140366 85.932579,227.317947 &#10;&#9;C95.835526,234.381500 112.356987,233.612610 121.567368,226.690125 &#10;&#9;C122.357796,226.096039 122.862305,223.795502 122.362526,223.049927 &#10;&#9;C120.592072,220.408829 118.327950,218.098648 116.331657,215.757751 &#10;&#9;C102.859154,223.201797 96.463341,221.458664 94.365608,210.000000 &#10;&#9;C99.383514,210.000000 104.364433,210.000000 109.345360,210.000000 &#10;&#9;C114.452728,210.000000 119.560097,210.000000 124.592155,210.000000 &#10;&#9;C126.838341,194.161179 121.175476,180.953262 106.012543,178.426819 &#10;&#9;C96.897392,176.908081 85.861511,180.086777 81.145279,189.527390 &#10;&#9;C75.731064,200.365189 75.866898,211.157181 81.950279,222.424576 &#10;M266.146027,165.324875 &#10;&#9;C259.209991,168.673157 254.433395,173.857346 251.324478,181.019516 &#10;&#9;C248.291077,188.007690 249.020828,195.179626 249.049438,202.331284 &#10;&#9;C249.103378,215.810883 256.487762,228.796036 271.100525,231.458725 &#10;&#9;C281.806366,233.409515 292.346039,232.687531 300.108948,223.194809 &#10;&#9;C298.786499,221.309464 297.498627,219.651520 296.403046,217.874969 &#10;&#9;C294.011536,213.996902 291.836761,213.509003 287.730164,216.474091 &#10;&#9;C280.239441,221.882645 271.197357,219.264923 267.912720,209.273178 &#10;&#9;C265.365509,201.524612 265.430969,193.794037 267.422577,186.186157 &#10;&#9;C269.809021,177.069962 278.356995,170.857147 288.102173,178.529480 &#10;&#9;C288.959778,179.204681 290.072998,179.555267 291.454376,180.251678 &#10;&#9;C293.770111,177.533966 296.210785,174.904083 298.298462,172.018814 &#10;&#9;C298.708679,171.451859 298.111786,169.418777 297.376801,168.872284 &#10;&#9;C287.977753,161.883759 277.623749,161.870819 266.146027,165.324875 &#10;z"/>
<path fill="none" opacity="1.000000" stroke="none" d="&#10;M216.999985,220.001083 &#10;&#9;C213.444168,210.386032 209.926483,201.172256 206.408783,191.958466 &#10;&#9;C206.127472,191.992691 205.846176,192.026901 205.564865,192.061111 &#10;&#9;C205.564865,204.520477 205.564865,216.979858 205.564865,229.718246 &#10;&#9;C200.707825,229.718246 195.635605,229.718246 190.279022,229.718246 &#10;&#9;C190.279022,208.034744 190.279022,186.300400 190.279022,164.001236 &#10;&#9;C196.483215,164.001236 202.753647,163.864822 209.006470,164.135391 &#10;&#9;C210.049667,164.180527 211.467621,165.815048 211.948273,167.019943 &#10;&#9;C216.595261,178.668610 221.078857,190.382446 226.638412,201.931427 &#10;&#9;C226.638412,189.474548 226.638412,177.017654 226.638412,164.283890 &#10;&#9;C231.955826,164.283890 236.694275,164.283890 241.718903,164.283890 &#10;&#9;C241.718903,185.960495 241.718903,207.695007 241.718903,229.998581 &#10;&#9;C235.522156,229.998581 229.251724,230.143478 222.999649,229.869553 &#10;&#9;C221.827057,229.818176 220.351028,228.302277 219.678513,227.093155 &#10;&#9;C218.523178,225.015961 217.890305,222.648163 216.999985,220.001083 &#10;z"/>
<path fill="none" opacity="1.000000" stroke="none" d="&#10;M338.753601,229.912109 &#10;&#9;C334.614319,223.078949 330.851379,216.349045 327.208893,209.554535 &#10;&#9;C325.720093,206.777390 324.514221,203.826996 320.107910,205.308136 &#10;&#9;C320.107910,213.215485 320.107910,221.323608 320.107910,229.713074 &#10;&#9;C314.385468,229.713074 308.983734,229.713074 303.289032,229.713074 &#10;&#9;C303.289032,208.067047 303.289032,186.344940 303.289032,163.626938 &#10;&#9;C312.019867,164.053146 320.860535,164.287064 329.662811,164.997101 &#10;&#9;C334.120605,165.356705 338.822021,165.840561 342.863556,167.560181 &#10;&#9;C351.257263,171.131577 354.619751,180.083084 352.671448,188.999496 &#10;&#9;C351.220795,195.638489 346.904602,199.176865 341.001587,202.106262 &#10;&#9;C346.460938,211.249252 351.814484,220.215057 357.650818,229.989380 &#10;&#9;C350.957062,229.989380 345.067749,229.989380 338.753601,229.912109 &#10;M320.000000,182.562119 &#10;&#9;C320.000000,185.983490 320.000000,189.404861 320.000000,193.498993 &#10;&#9;C325.060150,191.840088 331.054260,195.639420 333.808075,189.767303 &#10;&#9;C335.125977,186.957047 335.382233,182.066681 333.763855,179.800858 &#10;&#9;C330.678284,175.480927 325.245239,175.482544 320.000000,176.338394 &#10;&#9;C320.000000,178.305038 320.000000,179.949463 320.000000,182.562119 &#10;z"/>
<path fill="none" opacity="1.000000" stroke="none" d="&#10;M175.698639,222.797516 &#10;&#9;C169.887283,225.363327 164.508392,228.977264 158.765594,229.700043 &#10;&#9;C149.796570,230.828888 140.581009,229.999008 131.000000,229.999008 &#10;&#9;C131.000000,218.932907 131.000000,208.179108 131.000000,197.425308 &#10;&#9;C131.000000,186.805420 131.000000,176.185532 131.000000,165.000793 &#10;&#9;C144.816467,165.351166 158.451813,163.742554 171.510757,169.797028 &#10;&#9;C178.825928,173.188522 182.163635,179.253311 183.821182,186.164581 &#10;&#9;C186.084106,195.600052 185.777344,205.277466 181.886688,214.369217 &#10;&#9;C180.595047,217.387543 177.978683,219.838959 175.698639,222.797516 &#10;M165.981644,186.952042 &#10;&#9;C163.300339,179.163315 157.801132,176.270706 148.341583,177.441818 &#10;&#9;C148.341583,190.943634 148.341583,204.440308 148.341583,217.999969 &#10;&#9;C150.673874,217.999969 152.672073,218.110397 154.653824,217.976807 &#10;&#9;C158.684509,217.705154 162.086914,216.470306 164.115173,212.466949 &#10;&#9;C168.171097,204.461304 167.584106,196.187256 165.981644,186.952042 &#10;z"/>
<path fill="none" opacity="1.000000" stroke="none" d="&#10;M81.669365,222.167679 &#10;&#9;C75.866898,211.157181 75.731064,200.365189 81.145279,189.527390 &#10;&#9;C85.861511,180.086777 96.897392,176.908081 106.012543,178.426819 &#10;&#9;C121.175476,180.953262 126.838341,194.161179 124.592155,210.000000 &#10;&#9;C119.560097,210.000000 114.452728,210.000000 109.345360,210.000000 &#10;&#9;C104.364433,210.000000 99.383514,210.000000 94.365608,210.000000 &#10;&#9;C96.463341,221.458664 102.859154,223.201797 116.331657,215.757751 &#10;&#9;C118.327950,218.098648 120.592072,220.408829 122.362526,223.049927 &#10;&#9;C122.862305,223.795502 122.357796,226.096039 121.567368,226.690125 &#10;&#9;C112.356987,233.612610 95.835526,234.381500 85.932579,227.317947 &#10;&#9;C84.281647,226.140366 83.261765,224.078064 81.669365,222.167679 &#10;M98.717560,200.000000 &#10;&#9;C102.029243,200.000000 105.340935,200.000000 108.634583,200.000000 &#10;&#9;C108.913094,194.436615 105.613037,188.812607 101.830826,189.135223 &#10;&#9;C95.565048,189.669662 95.112801,194.974060 94.107330,200.000000 &#10;&#9;C95.486023,200.000000 96.639656,200.000000 98.717560,200.000000 &#10;z"/>
<path fill="none" opacity="1.000000" stroke="none" d="&#10;M266.523773,165.172913 &#10;&#9;C277.623749,161.870819 287.977753,161.883759 297.376801,168.872284 &#10;&#9;C298.111786,169.418777 298.708679,171.451859 298.298462,172.018814 &#10;&#9;C296.210785,174.904083 293.770111,177.533966 291.454376,180.251678 &#10;&#9;C290.072998,179.555267 288.959778,179.204681 288.102173,178.529480 &#10;&#9;C278.356995,170.857147 269.809021,177.069962 267.422577,186.186157 &#10;&#9;C265.430969,193.794037 265.365509,201.524612 267.912720,209.273178 &#10;&#9;C271.197357,219.264923 280.239441,221.882645 287.730164,216.474091 &#10;&#9;C291.836761,213.509003 294.011536,213.996902 296.403046,217.874969 &#10;&#9;C297.498627,219.651520 298.786499,221.309464 300.108948,223.194809 &#10;&#9;C292.346039,232.687531 281.806366,233.409515 271.100525,231.458725 &#10;&#9;C256.487762,228.796036 249.103378,215.810883 249.049438,202.331284 &#10;&#9;C249.020828,195.179626 248.291077,188.007690 251.324478,181.019516 &#10;&#9;C254.433395,173.857346 259.209991,168.673157 266.523773,165.172913 &#10;z"/>
<path fill="#000000" opacity="1.000000" stroke="none" d="&#10;M320.000000,182.078003 &#10;&#9;C320.000000,179.949463 320.000000,178.305038 320.000000,176.338394 &#10;&#9;C325.245239,175.482544 330.678284,175.480927 333.763855,179.800858 &#10;&#9;C335.382233,182.066681 335.125977,186.957047 333.808075,189.767303 &#10;&#9;C331.054260,195.639420 325.060150,191.840088 320.000000,193.498993 &#10;&#9;C320.000000,189.404861 320.000000,185.983490 320.000000,182.078003 &#10;z"/>
<path fill="#000000" opacity="1.000000" stroke="none" d="&#10;M165.995331,187.374146 &#10;&#9;C167.584106,196.187256 168.171097,204.461304 164.115173,212.466949 &#10;&#9;C162.086914,216.470306 158.684509,217.705154 154.653824,217.976807 &#10;&#9;C152.672073,218.110397 150.673874,217.999969 148.341583,217.999969 &#10;&#9;C148.341583,204.440308 148.341583,190.943634 148.341583,177.441818 &#10;&#9;C157.801132,176.270706 163.300339,179.163315 165.995331,187.374146 &#10;z"/>
<path fill="#000000" opacity="1.000000" stroke="none" d="&#10;M98.255424,200.000000 &#10;&#9;C96.639656,200.000000 95.486023,200.000000 94.107330,200.000000 &#10;&#9;C95.112801,194.974060 95.565048,189.669662 101.830826,189.135223 &#10;&#9;C105.613037,188.812607 108.913094,194.436615 108.634583,200.000000 &#10;&#9;C105.340935,200.000000 102.029243,200.000000 98.255424,200.000000 &#10;z"/>
</svg>