<svg version="1.1" id="Layer_1" xmlns="http://www.w3.org/2000/svg" xmlns:xlink="http://www.w3.org/1999/xlink" width="100%" x="0px" y="0px" viewBox="0 0 512 512" enable-background="new 0 0 512 512" xml:space="preserve">
        <path fill="#FFFFFF" opacity="1.000000" stroke="none" d="&#10;M156.024323,487.334717 &#10;&#9;C135.016785,487.769257 114.537247,487.547211 94.406891,482.932617 &#10;&#9;C89.242966,481.748871 84.114937,480.156738 79.199997,478.181091 &#10;&#9;C54.258942,468.155609 40.954693,449.356842 41.237007,422.708344 &#10;&#9;C41.422886,405.162415 44.398415,387.621368 46.528992,370.127350 &#10;&#9;C48.863228,350.961182 51.668175,331.852356 54.246090,312.715607 &#10;&#9;C54.423496,311.398651 54.476330,310.057648 54.488899,308.726898 &#10;&#9;C54.595348,297.457062 51.133198,293.742889 39.882858,293.017059 &#10;&#9;C31.794899,292.495239 28.089237,287.990814 29.210028,280.100739 &#10;&#9;C31.808899,261.805328 34.462193,243.517014 36.902031,225.200317 &#10;&#9;C37.286839,222.311417 38.120598,220.976929 41.168358,221.247742 &#10;&#9;C43.145390,221.423416 45.162807,221.188889 47.159695,221.089355 &#10;&#9;C57.544498,220.571838 65.251114,215.867966 68.086372,205.664978 &#10;&#9;C70.655968,196.417984 72.458290,186.908356 73.908569,177.409134 &#10;&#9;C78.053474,150.260315 80.962570,122.893089 85.987679,95.915375 &#10;&#9;C93.415527,56.038380 114.138336,36.997601 154.532700,29.934086 &#10;&#9;C174.685776,26.410042 194.988708,26.559862 215.307404,26.529636 &#10;&#9;C219.635773,26.523197 223.965164,26.644625 228.292435,26.585520 &#10;&#9;C237.200516,26.463844 240.951965,30.510147 239.851151,39.334126 &#10;&#9;C237.893036,55.030148 235.870834,70.718193 233.854904,86.406944 &#10;&#9;C233.752869,87.201065 233.457260,87.970314 233.151031,89.133949 &#10;&#9;C221.248856,89.133949 209.446625,89.066757 197.645844,89.167358 &#10;&#9;C192.990860,89.207039 188.316727,89.410919 183.690033,89.903595 &#10;&#9;C169.866669,91.375572 164.044098,96.713814 162.009918,110.344971 &#10;&#9;C158.840271,131.584839 156.007065,152.874741 152.986908,174.137131 &#10;&#9;C151.465515,184.847824 150.003998,195.570663 148.239655,206.242432 &#10;&#9;C144.293015,230.113861 132.278366,247.947052 109.094490,257.242645 &#10;&#9;C109.446739,257.863037 109.571556,258.454987 109.906303,258.619293 &#10;&#9;C131.336716,269.138489 136.528641,287.944336 134.300369,309.360260 &#10;&#9;C131.821320,333.186249 127.792381,356.850342 124.474113,380.589935 &#10;&#9;C123.160774,389.985809 121.591904,399.364746 120.775490,408.806396 &#10;&#9;C119.820366,419.852051 122.970161,423.447968 134.158005,423.901367 &#10;&#9;C150.456711,424.561890 166.777252,424.703644 183.089890,424.983734 &#10;&#9;C186.257172,425.038116 188.985596,425.020874 191.434082,427.954315 &#10;&#9;C193.744507,430.722382 194.155258,433.326538 193.783829,436.604340 &#10;&#9;C191.891357,453.305573 190.108719,470.019257 188.221573,487.334717 &#10;&#9;C178.032669,487.334717 167.276123,487.334717 156.024323,487.334717 &#10;z"/>
        <path fill="#FFFFFF" opacity="1.000000" stroke="none" d="&#10;M255.150391,487.117004 &#10;&#9;C249.521530,488.291809 246.082550,485.781860 243.502579,481.732849 &#10;&#9;C242.856400,480.718628 242.368820,479.287628 242.510468,478.134460 &#10;&#9;C244.680740,460.464569 246.967484,442.809021 249.272903,424.792358 &#10;&#9;C254.145966,424.542084 258.929749,424.383575 263.699646,424.035034 &#10;&#9;C278.073059,422.984863 284.621185,417.291565 286.818237,403.253937 &#10;&#9;C289.108643,388.620148 290.909943,373.910431 293.012115,359.246399 &#10;&#9;C295.633148,340.962677 297.893555,322.611572 301.131439,304.435944 &#10;&#9;C304.962524,282.930420 316.497345,266.808624 336.817322,257.623718 &#10;&#9;C337.696442,257.226318 338.508575,256.680664 339.305817,256.230133 &#10;&#9;C339.201202,255.774445 339.222595,255.342300 339.067078,255.264725 &#10;&#9;C319.355347,245.434006 313.222931,228.319305 314.724854,207.894424 &#10;&#9;C315.685394,194.831512 318.247955,181.885971 320.102936,168.889328 &#10;&#9;C323.371704,145.986847 326.391846,123.044304 330.059296,100.205757 &#10;&#9;C331.367859,92.057060 333.717194,83.968918 336.516449,76.185814 &#10;&#9;C345.548889,51.071667 365.082886,38.244770 389.859070,32.053867 &#10;&#9;C410.042633,27.010538 430.654236,26.328951 451.331818,26.507954 &#10;&#9;C459.653564,26.579996 467.976685,26.500511 476.299164,26.490124 &#10;&#9;C479.926270,26.485596 485.589630,31.398096 485.190247,34.851780 &#10;&#9;C483.110382,52.836838 480.778198,70.792717 478.482727,89.168152 &#10;&#9;C466.260498,89.168152 454.465637,89.104393 442.672028,89.199829 &#10;&#9;C438.018738,89.237480 433.345062,89.410896 428.720947,89.901924 &#10;&#9;C414.894257,91.370163 409.044525,96.718552 407.014801,110.306992 &#10;&#9;C403.842926,131.541641 400.983246,152.822968 398.003143,174.086166 &#10;&#9;C396.848083,182.327881 395.711884,190.572327 394.598877,198.819824 &#10;&#9;C394.377258,200.462128 394.197937,202.122452 394.173431,203.777069 &#10;&#9;C393.987061,216.371475 397.046173,219.730682 409.608582,220.818085 &#10;&#9;C416.964111,221.454803 420.518860,226.140945 419.477997,233.367752 &#10;&#9;C416.915405,251.159973 414.377502,268.957581 412.100433,286.787598 &#10;&#9;C411.601715,290.692871 410.784119,292.440887 406.215698,292.446075 &#10;&#9;C387.837097,292.466980 380.234589,299.648041 377.123322,320.318115 &#10;&#9;C372.837677,348.790009 369.160950,377.353271 364.940552,405.835480 &#10;&#9;C363.701111,414.200073 361.960876,422.552094 359.661255,430.686859 &#10;&#9;C351.474365,459.647430 331.184113,475.914337 302.650665,481.728271 &#10;&#9;C287.249695,484.866333 271.319092,485.404907 255.150391,487.117004 &#10;z"/>
      </svg>